<?xml version="1.0" encoding="UTF-8"?><svg id="Layer_1" xmlns="http://www.w3.org/2000/svg" viewBox="0 0 460 24"><defs><style>.cls-1{fill:none;}.cls-2{fill:#ffe100;}</style></defs><rect width="460" height="24"/><polygon class="cls-1" points="75.33 4 64.67 20 96.67 20 107.33 4 75.33 4"/><polygon class="cls-1" points="219.51 4 208.84 20 240.84 20 251.51 4 219.51 4"/><polygon class="cls-1" points="147.33 4 136.67 20 168.84 20 179.51 4 147.33 4"/><polygon class="cls-1" points="291.51 4 280.84 20 312.84 20 323.51 4 291.51 4"/><polygon class="cls-1" points="352.84 20 384.84 20 395.51 4 363.51 4 352.84 20"/><polygon class="cls-2" points="75.33 4 35.33 4 24.67 20 64.67 20 75.33 4"/><polygon class="cls-2" points="107.33 4 96.67 20 136.67 20 147.33 4 107.33 4"/><polygon class="cls-2" points="179.51 4 168.84 20 208.84 20 219.51 4 179.51 4"/><polygon class="cls-2" points="251.51 4 240.84 20 280.84 20 291.51 4 251.51 4"/><polygon class="cls-2" points="323.51 4 312.84 20 352.84 20 363.51 4 323.51 4"/><polygon class="cls-2" points="395.51 4 384.84 20 424.84 20 435.51 4 395.51 4"/></svg>